<svg width="435" height="84" viewBox="0 0 435 84" fill="none" xmlns="http://www.w3.org/2000/svg">
<mask id="mask0_764_581" style="mask-type:luminance" maskUnits="userSpaceOnUse" x="0" y="41" width="50" height="43">
<path d="M0 41.6797H49.4792V83.9974H0V41.6797Z" fill="white"/>
</mask>
<g mask="url(#mask0_764_581)">
<path d="M36.9271 41.7266H12.3281L0 63.0755L12.3281 84.3776H36.9271L49.25 63.0755L36.9271 41.7266Z" fill="#AECDE2"/>
</g>
<mask id="mask1_764_581" style="mask-type:luminance" maskUnits="userSpaceOnUse" x="24" y="0" width="75" height="84">
<path d="M24.2812 0H98.4948V84H24.2812V0Z" fill="white"/>
</mask>
<g mask="url(#mask1_764_581)">
<path d="M90.7031 49.6094H90.7083L89.8802 48.1719L86.1718 41.7292H86.1562L69.5885 13.0521H69.5833L61.526 -0.875H36.927L24.6041 20.4271L32.8958 34.7656L53.1979 69.9271L61.526 84.3802H86.1718L98.4479 63.0781L90.7031 49.6094Z" fill="#86C7ED"/>
</g>
<mask id="mask2_764_581" style="mask-type:luminance" maskUnits="userSpaceOnUse" x="73" y="0" width="75" height="84">
<path d="M73.7604 0H147.698V84H73.7604V0Z" fill="white"/>
</mask>
<g mask="url(#mask2_764_581)">
<path d="M139.328 48.5729L139.359 48.5521L118.286 11.9948L118.24 12.026L110.776 -0.875H86.1718L73.8489 20.4271L86.1718 41.7292H86.1822L98.4895 63.0156L98.4478 63.0781L110.776 84.3802H135.375L147.698 63.0781L139.328 48.5729Z" fill="#1836B2"/>
</g>
<path d="M201.64 42.4375H193.14L192.724 30.3542L192.682 28.3542C192.609 26.4792 192.578 25.0625 192.578 24.1042C192.578 21.7708 192.667 19.4375 192.849 17.1042L188.432 39.0833H180.265L175.536 17.1042C175.828 20.7448 175.974 23.9479 175.974 26.7083C175.974 28.2917 175.953 29.5104 175.911 30.3542L175.536 42.4375H167.057L169.432 10H180.161L184.515 31.5208L188.432 10H199.203L201.64 42.4375Z" fill="black"/>
<path d="M218.848 9.0625C223.541 9.0625 227.192 10.5573 229.806 13.5417C232.416 16.5313 233.723 20.7083 233.723 26.0833C233.723 29.6146 233.14 32.6615 231.973 35.2292C230.806 37.7865 229.103 39.75 226.869 41.125C224.629 42.4844 221.957 43.1667 218.848 43.1667C214.15 43.1667 210.499 41.6771 207.89 38.6875C205.291 35.7031 203.994 31.5 203.994 26.0833C203.994 22.5729 204.577 19.5417 205.744 17C206.91 14.4479 208.603 12.4896 210.827 11.125C213.061 9.75 215.733 9.0625 218.848 9.0625ZM218.848 15.2708C216.817 15.2708 215.332 16.1146 214.39 17.7917C213.442 19.474 212.973 22.2396 212.973 26.0833C212.973 29.9479 213.452 32.724 214.41 34.4167C215.369 36.1146 216.848 36.9583 218.848 36.9583C220.9 36.9583 222.395 36.1198 223.327 34.4375C224.254 32.7604 224.723 29.974 224.723 26.0833C224.723 22.2396 224.254 19.474 223.327 17.7917C222.395 16.1146 220.9 15.2708 218.848 15.2708Z" fill="black"/>
<path d="M263.082 42.3281H252.207L243.999 17.9115L244.124 18.9115C244.442 21.0521 244.686 23.0677 244.853 24.9531C245.02 26.8281 245.103 28.9688 245.103 31.3698V42.3281H237.457V9.89062H248.103L256.582 34.3906C256.207 32.0573 255.916 29.9635 255.707 28.099C255.509 26.224 255.416 24.0781 255.416 21.6615V9.89062H263.082V42.3281Z" fill="black"/>
<path d="M281.694 9.0625C286.386 9.0625 290.038 10.5573 292.652 13.5417C295.261 16.5313 296.569 20.7083 296.569 26.0833C296.569 29.6146 295.985 32.6615 294.819 35.2292C293.652 37.7865 291.949 39.75 289.715 41.125C287.475 42.4844 284.803 43.1667 281.694 43.1667C276.996 43.1667 273.345 41.6771 270.735 38.6875C268.136 35.7031 266.84 31.5 266.84 26.0833C266.84 22.5729 267.423 19.5417 268.59 17C269.756 14.4479 271.449 12.4896 273.673 11.125C275.907 9.75 278.579 9.0625 281.694 9.0625ZM281.694 15.2708C279.663 15.2708 278.178 16.1146 277.235 17.7917C276.288 19.474 275.819 22.2396 275.819 26.0833C275.819 29.9479 276.298 32.724 277.256 34.4167C278.215 36.1146 279.694 36.9583 281.694 36.9583C283.746 36.9583 285.241 36.1198 286.173 34.4375C287.1 32.7604 287.569 29.974 287.569 26.0833C287.569 22.2396 287.1 19.474 286.173 17.7917C285.241 16.1146 283.746 15.2708 281.694 15.2708Z" fill="black"/>
<path d="M311.511 9.0625C313.97 9.0625 316.136 9.42708 318.011 10.1458C319.897 10.8542 321.584 11.9271 323.074 13.3542L319.199 17.9167C316.959 16.1563 314.616 15.2708 312.157 15.2708C310.876 15.2708 309.907 15.5156 309.241 16C308.574 16.474 308.241 17.1458 308.241 18.0208C308.241 18.6458 308.407 19.1615 308.741 19.5625C309.084 19.9687 309.663 20.3542 310.47 20.7292C311.288 21.1042 312.564 21.5729 314.303 22.125C317.636 23.1823 320.064 24.5156 321.595 26.125C323.136 27.724 323.907 29.9375 323.907 32.7708C323.907 34.8281 323.376 36.6406 322.324 38.2083C321.267 39.7813 319.73 41 317.72 41.875C315.72 42.7344 313.366 43.1667 310.657 43.1667C305.491 43.1667 301.272 41.599 298.011 38.4583L302.261 33.75C304.845 35.8646 307.538 36.9167 310.345 36.9167C311.803 36.9167 312.933 36.599 313.741 35.9583C314.543 35.3229 314.949 34.474 314.949 33.4167C314.949 32.6667 314.793 32.0573 314.491 31.5833C314.183 31.099 313.626 30.6615 312.824 30.2708C312.032 29.8854 310.876 29.4531 309.366 28.9792C305.683 27.8281 303.095 26.4479 301.595 24.8333C300.105 23.224 299.366 21.1875 299.366 18.7292C299.366 16.8021 299.886 15.1042 300.928 13.6458C301.97 12.1771 303.413 11.0417 305.261 10.25C307.121 9.45833 309.204 9.0625 311.511 9.0625Z" fill="black"/>
<path d="M350.468 9.89062L349.572 16.474H341.926V42.3281H333.28V16.474H325.176V9.89062H350.468Z" fill="black"/>
<path d="M366.468 9.0625C371.161 9.0625 374.812 10.5573 377.426 13.5417C380.036 16.5313 381.343 20.7083 381.343 26.0833C381.343 29.6146 380.76 32.6615 379.593 35.2292C378.426 37.7865 376.723 39.75 374.489 41.125C372.249 42.4844 369.577 43.1667 366.468 43.1667C361.77 43.1667 358.119 41.6771 355.51 38.6875C352.911 35.7031 351.614 31.5 351.614 26.0833C351.614 22.5729 352.197 19.5417 353.364 17C354.53 14.4479 356.223 12.4896 358.447 11.125C360.681 9.75 363.353 9.0625 366.468 9.0625ZM366.468 15.2708C364.437 15.2708 362.952 16.1146 362.01 17.7917C361.062 19.474 360.593 22.2396 360.593 26.0833C360.593 29.9479 361.072 32.724 362.03 34.4167C362.989 36.1146 364.468 36.9583 366.468 36.9583C368.52 36.9583 370.015 36.1198 370.947 34.4375C371.874 32.7604 372.343 29.974 372.343 26.0833C372.343 22.2396 371.874 19.474 370.947 17.7917C370.015 16.1146 368.52 15.2708 366.468 15.2708Z" fill="black"/>
<path d="M396.098 30.3906H393.702V42.3281H385.077V9.89062H396.327C400.895 9.89062 404.307 10.7188 406.557 12.3698C408.817 14.026 409.952 16.5573 409.952 19.974C409.952 22.0313 409.473 23.7448 408.515 25.1198C407.567 26.4844 406.057 27.7031 403.973 28.7865L412.057 42.3281H402.432L396.098 30.3906ZM393.702 24.4948H396.598C399.583 24.4948 401.077 22.9896 401.077 19.974C401.077 18.5729 400.666 17.5469 399.848 16.8906C399.025 16.2396 397.791 15.9115 396.14 15.9115H393.702V24.4948Z" fill="black"/>
<path d="M434.587 9.89062L433.692 16.0156H422.629V22.9115H432.296V28.849H422.629V36.224H434.442V42.3281H414.004V9.89062H434.587Z" fill="black"/>
<path d="M170.557 63.9062V78.4896H167.474V63.9062H170.557Z" fill="black"/>
<path d="M179.828 66.9922C180.813 66.9922 181.578 67.2943 182.12 67.888C182.672 68.487 182.953 69.3151 182.953 70.3672V78.4922H179.953V70.8672C179.953 70.2734 179.849 69.8464 179.641 69.5964C179.443 69.3464 179.141 69.2214 178.724 69.2214C178.307 69.2214 177.922 69.3568 177.578 69.6172C177.245 69.8828 176.911 70.2734 176.578 70.7839V78.4922H173.599V67.3255H176.182L176.411 68.7422C176.88 68.1589 177.391 67.7214 177.932 67.4297C178.484 67.138 179.12 66.9922 179.828 66.9922Z" fill="black"/>
<path d="M192.014 66.9922C192.999 66.9922 193.764 67.2943 194.306 67.888C194.858 68.487 195.139 69.3151 195.139 70.3672V78.4922H192.139V70.8672C192.139 70.2734 192.035 69.8464 191.827 69.5964C191.629 69.3464 191.327 69.2214 190.91 69.2214C190.493 69.2214 190.108 69.3568 189.764 69.6172C189.431 69.8828 189.098 70.2734 188.764 70.7839V78.4922H185.785V67.3255H188.368L188.598 68.7422C189.066 68.1589 189.577 67.7214 190.118 67.4297C190.671 67.138 191.306 66.9922 192.014 66.9922Z" fill="black"/>
<path d="M202.659 66.9922C204.336 66.9922 205.643 67.5234 206.575 68.5755C207.518 69.6172 207.992 71.0651 207.992 72.9089C207.992 74.0911 207.773 75.1276 207.346 76.013C206.914 76.9036 206.294 77.5964 205.492 78.0964C204.685 78.5807 203.732 78.8255 202.638 78.8255C200.971 78.8255 199.659 78.3047 198.7 77.263C197.753 76.2214 197.284 74.7734 197.284 72.9089C197.284 71.7318 197.497 70.6953 197.93 69.8047C198.357 68.9193 198.977 68.2318 199.784 67.7422C200.586 67.2422 201.544 66.9922 202.659 66.9922ZM202.659 69.2214C201.909 69.2214 201.346 69.5234 200.971 70.1172C200.596 70.7161 200.409 71.6484 200.409 72.9089C200.409 74.1745 200.596 75.1068 200.971 75.7005C201.346 76.2995 201.898 76.5964 202.638 76.5964C203.388 76.5964 203.94 76.2995 204.305 75.7005C204.68 75.1068 204.867 74.1745 204.867 72.9089C204.867 71.6484 204.685 70.7161 204.325 70.1172C203.961 69.5234 203.409 69.2214 202.659 69.2214Z" fill="black"/>
<path d="M219.533 67.3281L215.95 78.4948H212.388L208.742 67.3281H211.992L214.2 76.1615L216.45 67.3281H219.533Z" fill="black"/>
<path d="M229.475 75.388C229.475 75.8359 229.538 76.1589 229.663 76.3672C229.788 76.5651 230.001 76.7109 230.309 76.8047L229.663 78.7839C229.007 78.7266 228.475 78.5755 228.059 78.3255C227.642 78.0755 227.319 77.6797 227.1 77.138C226.361 78.263 225.246 78.8255 223.746 78.8255C222.632 78.8255 221.751 78.5026 221.1 77.8672C220.444 77.2318 220.121 76.3984 220.121 75.3672C220.121 74.1484 220.564 73.2161 221.455 72.5755C222.34 71.9245 223.611 71.5964 225.267 71.5964H226.559V71.0547C226.559 70.3776 226.397 69.9036 226.08 69.638C225.772 69.362 225.267 69.2214 224.559 69.2214C223.767 69.2214 222.777 69.4193 221.6 69.8047L220.934 67.8047C222.319 67.263 223.694 66.9922 225.059 66.9922C226.569 66.9922 227.684 67.3203 228.392 67.9714C229.111 68.6276 229.475 69.5964 229.475 70.888V75.388ZM224.58 76.6797C225.413 76.6797 226.069 76.263 226.559 75.4297V73.3047H225.559C223.944 73.3047 223.142 73.9089 223.142 75.1172C223.142 75.6172 223.257 76.0078 223.496 76.2839C223.746 76.5495 224.106 76.6797 224.58 76.6797Z" fill="black"/>
<path d="M239.134 77.9688C238.728 78.25 238.269 78.4583 237.759 78.5938C237.243 78.7448 236.738 78.8229 236.238 78.8229C235.082 78.8073 234.207 78.4844 233.613 77.8438C233.03 77.1927 232.738 76.2396 232.738 74.9896V69.4271H231.071V67.3229H232.738V64.8854L235.717 64.5312V67.3229H238.3L238.009 69.4271H235.717V74.9271C235.717 75.4688 235.806 75.8594 235.988 76.0938C236.181 76.3333 236.467 76.4479 236.842 76.4479C237.217 76.4479 237.639 76.3229 238.113 76.0729L239.134 77.9688Z" fill="black"/>
<path d="M243.444 67.3281V78.4948H240.465V67.3281H243.444ZM241.944 61.5781C242.47 61.5781 242.908 61.7448 243.257 62.0781C243.6 62.4115 243.777 62.8281 243.777 63.3281C243.777 63.8281 243.6 64.2448 243.257 64.5781C242.908 64.9115 242.47 65.0781 241.944 65.0781C241.402 65.0781 240.965 64.9115 240.632 64.5781C240.298 64.2448 240.132 63.8281 240.132 63.3281C240.132 62.8281 240.298 62.4115 240.632 62.0781C240.965 61.7448 241.402 61.5781 241.944 61.5781Z" fill="black"/>
<path d="M255.671 67.3281L252.088 78.4948H248.525L244.879 67.3281H248.129L250.338 76.1615L252.588 67.3281H255.671Z" fill="black"/>
<path d="M266.53 72.6589C266.53 72.7995 266.509 73.1901 266.467 73.8255H259.488C259.582 74.8255 259.852 75.5443 260.3 75.9714C260.759 76.388 261.368 76.5964 262.134 76.5964C262.618 76.5964 263.071 76.5234 263.488 76.3672C263.905 76.2161 264.363 75.9714 264.863 75.638L266.092 77.3047C264.842 78.3203 263.431 78.8255 261.863 78.8255C260.113 78.8255 258.764 78.3047 257.821 77.263C256.873 76.2109 256.405 74.7786 256.405 72.9714C256.405 71.8359 256.602 70.8151 257.009 69.9089C257.41 69.0078 257.993 68.2995 258.759 67.7839C259.519 67.2578 260.431 66.9922 261.488 66.9922C263.071 66.9922 264.306 67.4922 265.196 68.4922C266.082 69.4922 266.53 70.8828 266.53 72.6589ZM263.55 71.8255C263.55 69.9661 262.884 69.0339 261.55 69.0339C260.936 69.0339 260.457 69.263 260.113 69.7214C259.764 70.1797 259.556 70.9245 259.488 71.9505H263.55V71.8255Z" fill="black"/>
<path d="M276.803 67.3281V78.4948H273.824V67.3281H276.803ZM275.303 61.5781C275.83 61.5781 276.267 61.7448 276.616 62.0781C276.96 62.4115 277.137 62.8281 277.137 63.3281C277.137 63.8281 276.96 64.2448 276.616 64.5781C276.267 64.9115 275.83 65.0781 275.303 65.0781C274.762 65.0781 274.324 64.9115 273.991 64.5781C273.658 64.2448 273.491 63.8281 273.491 63.3281C273.491 62.8281 273.658 62.4115 273.991 62.0781C274.324 61.7448 274.762 61.5781 275.303 61.5781Z" fill="black"/>
<path d="M289.426 62.888V78.4922H286.78L286.614 77.1172C285.832 78.2578 284.77 78.8255 283.426 78.8255C282.051 78.8255 280.994 78.2995 280.259 77.2422C279.536 76.1901 279.176 74.7422 279.176 72.9089C279.176 71.7578 279.364 70.737 279.739 69.8464C280.114 68.9609 280.64 68.263 281.322 67.763C282.015 67.2526 282.812 66.9922 283.718 66.9922C284.759 66.9922 285.661 67.3672 286.426 68.1172V62.5547L289.426 62.888ZM284.301 76.5964C284.728 76.5964 285.114 76.4922 285.447 76.2839C285.791 76.0651 286.119 75.7161 286.426 75.2422V70.263C286.134 69.9036 285.832 69.638 285.53 69.4714C285.239 69.2943 284.89 69.2005 284.489 69.2005C283.806 69.2005 283.27 69.5078 282.884 70.1172C282.494 70.7161 282.301 71.6484 282.301 72.9089C282.301 74.2422 282.473 75.1953 282.822 75.763C283.166 76.3203 283.661 76.5964 284.301 76.5964Z" fill="black"/>
<path d="M301.804 72.6589C301.804 72.7995 301.783 73.1901 301.742 73.8255H294.762C294.856 74.8255 295.127 75.5443 295.575 75.9714C296.033 76.388 296.643 76.5964 297.408 76.5964C297.893 76.5964 298.346 76.5234 298.762 76.3672C299.179 76.2161 299.637 75.9714 300.137 75.638L301.367 77.3047C300.117 78.3203 298.705 78.8255 297.137 78.8255C295.387 78.8255 294.038 78.3047 293.096 77.263C292.148 76.2109 291.679 74.7786 291.679 72.9714C291.679 71.8359 291.877 70.8151 292.283 69.9089C292.684 69.0078 293.268 68.2995 294.033 67.7839C294.794 67.2578 295.705 66.9922 296.762 66.9922C298.346 66.9922 299.58 67.4922 300.471 68.4922C301.356 69.4922 301.804 70.8828 301.804 72.6589ZM298.825 71.8255C298.825 69.9661 298.158 69.0339 296.825 69.0339C296.21 69.0339 295.731 69.263 295.387 69.7214C295.038 70.1797 294.83 70.9245 294.762 71.9505H298.825V71.8255Z" fill="black"/>
<path d="M312.484 75.388C312.484 75.8359 312.547 76.1589 312.672 76.3672C312.797 76.5651 313.01 76.7109 313.318 76.8047L312.672 78.7839C312.016 78.7266 311.484 78.5755 311.068 78.3255C310.651 78.0755 310.328 77.6797 310.109 77.138C309.37 78.263 308.255 78.8255 306.755 78.8255C305.641 78.8255 304.76 78.5026 304.109 77.8672C303.453 77.2318 303.13 76.3984 303.13 75.3672C303.13 74.1484 303.573 73.2161 304.463 72.5755C305.349 71.9245 306.62 71.5964 308.276 71.5964H309.568V71.0547C309.568 70.3776 309.406 69.9036 309.088 69.638C308.781 69.362 308.276 69.2214 307.568 69.2214C306.776 69.2214 305.786 69.4193 304.609 69.8047L303.943 67.8047C305.328 67.263 306.703 66.9922 308.068 66.9922C309.578 66.9922 310.693 67.3203 311.401 67.9714C312.12 68.6276 312.484 69.5964 312.484 70.888V75.388ZM307.588 76.6797C308.422 76.6797 309.078 76.263 309.568 75.4297V73.3047H308.568C306.953 73.3047 306.151 73.9089 306.151 75.1172C306.151 75.6172 306.266 76.0078 306.505 76.2839C306.755 76.5495 307.115 76.6797 307.588 76.6797Z" fill="black"/>
<path d="M319.184 66.9922C320.752 66.9922 322.101 67.4453 323.226 68.3464L322.08 70.0547C321.132 69.4609 320.21 69.1589 319.309 69.1589C318.809 69.1589 318.424 69.2526 318.164 69.4297C317.898 69.612 317.768 69.862 317.768 70.1797C317.768 70.4036 317.82 70.5911 317.934 70.7422C318.059 70.8984 318.289 71.0443 318.622 71.1797C318.955 71.3203 319.445 71.487 320.101 71.6797C321.278 72.013 322.153 72.4505 322.726 72.9922C323.309 73.5339 323.601 74.2734 323.601 75.2005C323.601 75.9505 323.382 76.6068 322.955 77.1589C322.523 77.7005 321.94 78.1172 321.205 78.4089C320.481 78.6849 319.669 78.8255 318.768 78.8255C317.835 78.8255 316.981 78.6849 316.205 78.4089C315.44 78.1172 314.778 77.7161 314.226 77.2005L315.705 75.5547C316.648 76.2943 317.643 76.6589 318.684 76.6589C319.252 76.6589 319.695 76.5547 320.018 76.3464C320.351 76.1276 320.518 75.8203 320.518 75.4297C320.518 75.138 320.455 74.9089 320.33 74.7422C320.205 74.5755 319.976 74.4245 319.643 74.2839C319.309 74.1328 318.778 73.9609 318.059 73.763C316.934 73.4453 316.101 73.0026 315.559 72.4297C315.018 71.862 314.747 71.1589 314.747 70.3255C314.747 69.6901 314.924 69.1172 315.289 68.6172C315.664 68.1068 316.184 67.7109 316.851 67.4297C317.518 67.138 318.294 66.9922 319.184 66.9922Z" fill="black"/>
<path d="M333.672 67.3281V78.4948H330.693V67.3281H333.672ZM332.172 61.5781C332.698 61.5781 333.136 61.7448 333.485 62.0781C333.828 62.4115 334.005 62.8281 334.005 63.3281C334.005 63.8281 333.828 64.2448 333.485 64.5781C333.136 64.9115 332.698 65.0781 332.172 65.0781C331.63 65.0781 331.193 64.9115 330.86 64.5781C330.526 64.2448 330.36 63.8281 330.36 63.3281C330.36 62.8281 330.526 62.4115 330.86 62.0781C331.193 61.7448 331.63 61.5781 332.172 61.5781Z" fill="black"/>
<path d="M342.857 66.9922C343.842 66.9922 344.607 67.2943 345.149 67.888C345.701 68.487 345.982 69.3151 345.982 70.3672V78.4922H342.982V70.8672C342.982 70.2734 342.878 69.8464 342.67 69.5964C342.472 69.3464 342.17 69.2214 341.753 69.2214C341.337 69.2214 340.951 69.3568 340.607 69.6172C340.274 69.8828 339.941 70.2734 339.607 70.7839V78.4922H336.628V67.3255H339.212L339.441 68.7422C339.909 68.1589 340.42 67.7214 340.962 67.4297C341.514 67.138 342.149 66.9922 342.857 66.9922Z" fill="black"/>
<path d="M362.471 75.388C362.471 75.8359 362.533 76.1589 362.658 76.3672C362.783 76.5651 362.997 76.7109 363.304 76.8047L362.658 78.7839C362.002 78.7266 361.471 78.5755 361.054 78.3255C360.637 78.0755 360.314 77.6797 360.096 77.138C359.356 78.263 358.241 78.8255 356.741 78.8255C355.627 78.8255 354.747 78.5026 354.096 77.8672C353.439 77.2318 353.116 76.3984 353.116 75.3672C353.116 74.1484 353.559 73.2161 354.45 72.5755C355.335 71.9245 356.606 71.5964 358.262 71.5964H359.554V71.0547C359.554 70.3776 359.392 69.9036 359.075 69.638C358.767 69.362 358.262 69.2214 357.554 69.2214C356.762 69.2214 355.773 69.4193 354.596 69.8047L353.929 67.8047C355.314 67.263 356.689 66.9922 358.054 66.9922C359.564 66.9922 360.679 67.3203 361.387 67.9714C362.106 68.6276 362.471 69.5964 362.471 70.888V75.388ZM357.575 76.6797C358.408 76.6797 359.064 76.263 359.554 75.4297V73.3047H358.554C356.939 73.3047 356.137 73.9089 356.137 75.1172C356.137 75.6172 356.252 76.0078 356.491 76.2839C356.741 76.5495 357.101 76.6797 357.575 76.6797Z" fill="black"/>
<path d="M370.108 66.9922C370.858 66.9922 371.53 67.1068 372.129 67.3255C372.723 67.5339 373.285 67.8776 373.817 68.3464L372.504 70.1172C372.139 69.8255 371.785 69.6172 371.442 69.4922C371.108 69.3672 370.733 69.3047 370.317 69.3047C368.733 69.3047 367.942 70.5286 367.942 72.9714C367.942 74.2109 368.139 75.0964 368.546 75.638C368.962 76.1693 369.546 76.4297 370.296 76.4297C370.697 76.4297 371.056 76.3776 371.379 76.263C371.697 76.138 372.072 75.9401 372.504 75.6589L373.817 77.513C372.744 78.388 371.525 78.8255 370.15 78.8255C369.051 78.8255 368.098 78.5859 367.296 78.1172C366.488 77.6328 365.863 76.9505 365.421 76.0755C364.988 75.2005 364.775 74.1745 364.775 72.9922C364.775 71.8151 364.988 70.7734 365.421 69.8672C365.863 68.9661 366.488 68.263 367.296 67.763C368.098 67.2526 369.035 66.9922 370.108 66.9922Z" fill="black"/>
<path d="M382.189 77.9688C381.783 78.25 381.325 78.4583 380.814 78.5938C380.299 78.7448 379.794 78.8229 379.294 78.8229C378.137 78.8073 377.262 78.4844 376.669 77.8438C376.085 77.1927 375.794 76.2396 375.794 74.9896V69.4271H374.127V67.3229H375.794V64.8854L378.773 64.5312V67.3229H381.356L381.064 69.4271H378.773V74.9271C378.773 75.4688 378.861 75.8594 379.044 76.0938C379.236 76.3333 379.523 76.4479 379.898 76.4479C380.273 76.4479 380.695 76.3229 381.169 76.0729L382.189 77.9688Z" fill="black"/>
<path d="M386.5 67.3281V78.4948H383.521V67.3281H386.5ZM385 61.5781C385.526 61.5781 385.963 61.7448 386.312 62.0781C386.656 62.4115 386.833 62.8281 386.833 63.3281C386.833 63.8281 386.656 64.2448 386.312 64.5781C385.963 64.9115 385.526 65.0781 385 65.0781C384.458 65.0781 384.021 64.9115 383.687 64.5781C383.354 64.2448 383.187 63.8281 383.187 63.3281C383.187 62.8281 383.354 62.4115 383.687 62.0781C384.021 61.7448 384.458 61.5781 385 61.5781Z" fill="black"/>
<path d="M394.143 66.9922C395.82 66.9922 397.128 67.5234 398.06 68.5755C399.003 69.6172 399.477 71.0651 399.477 72.9089C399.477 74.0911 399.258 75.1276 398.831 76.013C398.399 76.9036 397.779 77.5964 396.977 78.0964C396.169 78.5807 395.216 78.8255 394.122 78.8255C392.456 78.8255 391.143 78.3047 390.185 77.263C389.237 76.2214 388.768 74.7734 388.768 72.9089C388.768 71.7318 388.982 70.6953 389.414 69.8047C389.841 68.9193 390.461 68.2318 391.268 67.7422C392.07 67.2422 393.029 66.9922 394.143 66.9922ZM394.143 69.2214C393.393 69.2214 392.831 69.5234 392.456 70.1172C392.081 70.7161 391.893 71.6484 391.893 72.9089C391.893 74.1745 392.081 75.1068 392.456 75.7005C392.831 76.2995 393.383 76.5964 394.122 76.5964C394.872 76.5964 395.425 76.2995 395.789 75.7005C396.164 75.1068 396.352 74.1745 396.352 72.9089C396.352 71.6484 396.169 70.7161 395.81 70.1172C395.445 69.5234 394.893 69.2214 394.143 69.2214Z" fill="black"/>
<path d="M407.976 66.9922C408.961 66.9922 409.726 67.2943 410.268 67.888C410.82 68.487 411.101 69.3151 411.101 70.3672V78.4922H408.101V70.8672C408.101 70.2734 407.997 69.8464 407.789 69.5964C407.591 69.3464 407.289 69.2214 406.872 69.2214C406.456 69.2214 406.07 69.3568 405.726 69.6172C405.393 69.8828 405.06 70.2734 404.726 70.7839V78.4922H401.747V67.3255H404.331L404.56 68.7422C405.028 68.1589 405.539 67.7214 406.081 67.4297C406.633 67.138 407.268 66.9922 407.976 66.9922Z" fill="black"/>
</svg>
